<svg xmlns="http://www.w3.org/2000/svg" width="800" height="600" viewBox="0 0 800 600">
<defs>
<linearGradient id="sky4" x1="0" y1="0" x2="0" y2="1">
<stop offset="0" stop-color="#EFF6FF"/><stop offset="1" stop-color="#DBEAFE"/>
</linearGradient>
<linearGradient id="gr4" x1="0" y1="0" x2="0" y2="1">
<stop offset="0" stop-color="#2563EB" stop-opacity="0.05"/><stop offset="1" stop-color="#2563EB" stop-opacity="0.22"/>
</linearGradient>
</defs>
<rect width="800" height="600" fill="url(#sky4)"/>
<circle cx="425" cy="120" r="58" fill="#BFDBFE" opacity="0.9"/>
<circle cx="425" cy="120" r="82" fill="#BFDBFE" opacity="0.45"/>
<g opacity="0.45"><rect x="-20" y="384.2" width="134" height="85.8" fill="#93C5FD"/><rect x="3.4" y="406.2" width="17.4" height="14.0" fill="#BFDBFE" opacity="0.55"/><rect x="3.4" y="434.1" width="17.4" height="14.0" fill="#BFDBFE" opacity="0.55"/><rect x="38.3" y="406.2" width="17.4" height="14.0" fill="#BFDBFE" opacity="0.55"/><rect x="38.3" y="434.1" width="17.4" height="14.0" fill="#BFDBFE" opacity="0.55"/><rect x="73.1" y="406.2" width="17.4" height="14.0" fill="#BFDBFE" opacity="0.55"/><rect x="73.1" y="434.1" width="17.4" height="14.0" fill="#BFDBFE" opacity="0.55"/></g>
<g opacity="0.45"><rect x="122" y="346.5" width="81" height="123.50000000000001" fill="#93C5FD"/><rect x="141.8" y="369.9" width="13.8" height="15.4" fill="#BFDBFE" opacity="0.55"/><rect x="141.8" y="400.6" width="13.8" height="15.4" fill="#BFDBFE" opacity="0.55"/><rect x="141.8" y="431.3" width="13.8" height="15.4" fill="#BFDBFE" opacity="0.55"/><rect x="169.4" y="369.9" width="13.8" height="15.4" fill="#BFDBFE" opacity="0.55"/><rect x="169.4" y="400.6" width="13.8" height="15.4" fill="#BFDBFE" opacity="0.55"/><rect x="169.4" y="431.3" width="13.8" height="15.4" fill="#BFDBFE" opacity="0.55"/></g>
<g opacity="0.45"><rect x="211" y="367.3" width="118" height="102.7" fill="#93C5FD"/><rect x="232.1" y="392.6" width="15.1" height="17.3" fill="#BFDBFE" opacity="0.55"/><rect x="232.1" y="427.3" width="15.1" height="17.3" fill="#BFDBFE" opacity="0.55"/><rect x="262.4" y="392.6" width="15.1" height="17.3" fill="#BFDBFE" opacity="0.55"/><rect x="262.4" y="427.3" width="15.1" height="17.3" fill="#BFDBFE" opacity="0.55"/><rect x="292.7" y="392.6" width="15.1" height="17.3" fill="#BFDBFE" opacity="0.55"/><rect x="292.7" y="427.3" width="15.1" height="17.3" fill="#BFDBFE" opacity="0.55"/></g>
<g opacity="0.45"><rect x="337" y="388.1" width="65" height="81.9" fill="#93C5FD"/><rect x="353.6" y="409.3" width="10.6" height="13.2" fill="#BFDBFE" opacity="0.55"/><rect x="353.6" y="435.6" width="10.6" height="13.2" fill="#BFDBFE" opacity="0.55"/><rect x="374.8" y="409.3" width="10.6" height="13.2" fill="#BFDBFE" opacity="0.55"/><rect x="374.8" y="435.6" width="10.6" height="13.2" fill="#BFDBFE" opacity="0.55"/></g>
<g opacity="0.45"><rect x="410" y="350.4" width="102" height="119.60000000000001" fill="#93C5FD"/><rect x="428.9" y="379.1" width="12.9" height="20.7" fill="#BFDBFE" opacity="0.55"/><rect x="428.9" y="420.6" width="12.9" height="20.7" fill="#BFDBFE" opacity="0.55"/><rect x="454.6" y="379.1" width="12.9" height="20.7" fill="#BFDBFE" opacity="0.55"/><rect x="454.6" y="420.6" width="12.9" height="20.7" fill="#BFDBFE" opacity="0.55"/><rect x="480.3" y="379.1" width="12.9" height="20.7" fill="#BFDBFE" opacity="0.55"/><rect x="480.3" y="420.6" width="12.9" height="20.7" fill="#BFDBFE" opacity="0.55"/></g>
<g opacity="0.45"><rect x="520" y="371.2" width="139" height="98.8" fill="#93C5FD"/><rect x="540.1" y="395.8" width="14.1" height="16.6" fill="#BFDBFE" opacity="0.55"/><rect x="540.1" y="428.9" width="14.1" height="16.6" fill="#BFDBFE" opacity="0.55"/><rect x="568.3" y="395.8" width="14.1" height="16.6" fill="#BFDBFE" opacity="0.55"/><rect x="568.3" y="428.9" width="14.1" height="16.6" fill="#BFDBFE" opacity="0.55"/><rect x="596.6" y="395.8" width="14.1" height="16.6" fill="#BFDBFE" opacity="0.55"/><rect x="596.6" y="428.9" width="14.1" height="16.6" fill="#BFDBFE" opacity="0.55"/><rect x="624.8" y="395.8" width="14.1" height="16.6" fill="#BFDBFE" opacity="0.55"/><rect x="624.8" y="428.9" width="14.1" height="16.6" fill="#BFDBFE" opacity="0.55"/></g>
<g opacity="0.45"><rect x="667" y="392" width="86" height="78.00000000000001" fill="#93C5FD"/><rect x="687.8" y="412.4" width="14.8" height="12.4" fill="#BFDBFE" opacity="0.55"/><rect x="687.8" y="437.2" width="14.8" height="12.4" fill="#BFDBFE" opacity="0.55"/><rect x="717.4" y="412.4" width="14.8" height="12.4" fill="#BFDBFE" opacity="0.55"/><rect x="717.4" y="437.2" width="14.8" height="12.4" fill="#BFDBFE" opacity="0.55"/></g>
<g opacity="0.45"><rect x="761" y="354.29999999999995" width="123" height="115.70000000000002" fill="#93C5FD"/><rect x="782.9" y="382.2" width="15.9" height="19.9" fill="#BFDBFE" opacity="0.55"/><rect x="782.9" y="422.1" width="15.9" height="19.9" fill="#BFDBFE" opacity="0.55"/><rect x="814.6" y="382.2" width="15.9" height="19.9" fill="#BFDBFE" opacity="0.55"/><rect x="814.6" y="422.1" width="15.9" height="19.9" fill="#BFDBFE" opacity="0.55"/><rect x="846.3" y="382.2" width="15.9" height="19.9" fill="#BFDBFE" opacity="0.55"/><rect x="846.3" y="422.1" width="15.9" height="19.9" fill="#BFDBFE" opacity="0.55"/></g>
<g opacity="0.7"><rect x="-2" y="328.9" width="97" height="141.10000000000002" fill="#60A5FA"/><rect x="21.0" y="354.8" width="17.0" height="17.9" fill="#BFDBFE" opacity="0.55"/><rect x="21.0" y="390.5" width="17.0" height="17.9" fill="#BFDBFE" opacity="0.55"/><rect x="21.0" y="426.3" width="17.0" height="17.9" fill="#BFDBFE" opacity="0.55"/><rect x="55.0" y="354.8" width="17.0" height="17.9" fill="#BFDBFE" opacity="0.55"/><rect x="55.0" y="390.5" width="17.0" height="17.9" fill="#BFDBFE" opacity="0.55"/><rect x="55.0" y="426.3" width="17.0" height="17.9" fill="#BFDBFE" opacity="0.55"/></g>
<g opacity="0.7"><rect x="103" y="356.1" width="134" height="113.9" fill="#60A5FA"/><rect x="126.4" y="383.7" width="17.4" height="19.6" fill="#BFDBFE" opacity="0.55"/><rect x="126.4" y="422.8" width="17.4" height="19.6" fill="#BFDBFE" opacity="0.55"/><rect x="161.3" y="383.7" width="17.4" height="19.6" fill="#BFDBFE" opacity="0.55"/><rect x="161.3" y="422.8" width="17.4" height="19.6" fill="#BFDBFE" opacity="0.55"/><rect x="196.1" y="383.7" width="17.4" height="19.6" fill="#BFDBFE" opacity="0.55"/><rect x="196.1" y="422.8" width="17.4" height="19.6" fill="#BFDBFE" opacity="0.55"/></g>
<g opacity="0.7"><rect x="245" y="306.8" width="81" height="163.2" fill="#60A5FA"/><rect x="264.8" y="331.2" width="13.8" height="16.4" fill="#BFDBFE" opacity="0.55"/><rect x="264.8" y="363.9" width="13.8" height="16.4" fill="#BFDBFE" opacity="0.55"/><rect x="264.8" y="396.6" width="13.8" height="16.4" fill="#BFDBFE" opacity="0.55"/><rect x="264.8" y="429.3" width="13.8" height="16.4" fill="#BFDBFE" opacity="0.55"/><rect x="292.4" y="331.2" width="13.8" height="16.4" fill="#BFDBFE" opacity="0.55"/><rect x="292.4" y="363.9" width="13.8" height="16.4" fill="#BFDBFE" opacity="0.55"/><rect x="292.4" y="396.6" width="13.8" height="16.4" fill="#BFDBFE" opacity="0.55"/><rect x="292.4" y="429.3" width="13.8" height="16.4" fill="#BFDBFE" opacity="0.55"/></g>
<g opacity="0.7"><rect x="334" y="334" width="118" height="136" fill="#60A5FA"/><rect x="355.1" y="359.1" width="15.1" height="17.1" fill="#BFDBFE" opacity="0.55"/><rect x="355.1" y="393.4" width="15.1" height="17.1" fill="#BFDBFE" opacity="0.55"/><rect x="355.1" y="427.7" width="15.1" height="17.1" fill="#BFDBFE" opacity="0.55"/><rect x="385.4" y="359.1" width="15.1" height="17.1" fill="#BFDBFE" opacity="0.55"/><rect x="385.4" y="393.4" width="15.1" height="17.1" fill="#BFDBFE" opacity="0.55"/><rect x="385.4" y="427.7" width="15.1" height="17.1" fill="#BFDBFE" opacity="0.55"/><rect x="415.7" y="359.1" width="15.1" height="17.1" fill="#BFDBFE" opacity="0.55"/><rect x="415.7" y="393.4" width="15.1" height="17.1" fill="#BFDBFE" opacity="0.55"/><rect x="415.7" y="427.7" width="15.1" height="17.1" fill="#BFDBFE" opacity="0.55"/></g>
<g opacity="0.7"><rect x="460" y="361.2" width="65" height="108.8" fill="#60A5FA"/><rect x="476.6" y="387.8" width="10.6" height="18.6" fill="#BFDBFE" opacity="0.55"/><rect x="476.6" y="424.9" width="10.6" height="18.6" fill="#BFDBFE" opacity="0.55"/><rect x="497.8" y="387.8" width="10.6" height="18.6" fill="#BFDBFE" opacity="0.55"/><rect x="497.8" y="424.9" width="10.6" height="18.6" fill="#BFDBFE" opacity="0.55"/></g>
<g opacity="0.7"><rect x="533" y="311.9" width="102" height="158.1" fill="#60A5FA"/><rect x="551.9" y="340.2" width="12.9" height="20.3" fill="#BFDBFE" opacity="0.55"/><rect x="551.9" y="380.8" width="12.9" height="20.3" fill="#BFDBFE" opacity="0.55"/><rect x="551.9" y="421.4" width="12.9" height="20.3" fill="#BFDBFE" opacity="0.55"/><rect x="577.6" y="340.2" width="12.9" height="20.3" fill="#BFDBFE" opacity="0.55"/><rect x="577.6" y="380.8" width="12.9" height="20.3" fill="#BFDBFE" opacity="0.55"/><rect x="577.6" y="421.4" width="12.9" height="20.3" fill="#BFDBFE" opacity="0.55"/><rect x="603.3" y="340.2" width="12.9" height="20.3" fill="#BFDBFE" opacity="0.55"/><rect x="603.3" y="380.8" width="12.9" height="20.3" fill="#BFDBFE" opacity="0.55"/><rect x="603.3" y="421.4" width="12.9" height="20.3" fill="#BFDBFE" opacity="0.55"/></g>
<g opacity="0.7"><rect x="643" y="339.1" width="139" height="130.9" fill="#60A5FA"/><rect x="663.1" y="363.5" width="14.1" height="16.4" fill="#BFDBFE" opacity="0.55"/><rect x="663.1" y="396.3" width="14.1" height="16.4" fill="#BFDBFE" opacity="0.55"/><rect x="663.1" y="429.2" width="14.1" height="16.4" fill="#BFDBFE" opacity="0.55"/><rect x="691.3" y="363.5" width="14.1" height="16.4" fill="#BFDBFE" opacity="0.55"/><rect x="691.3" y="396.3" width="14.1" height="16.4" fill="#BFDBFE" opacity="0.55"/><rect x="691.3" y="429.2" width="14.1" height="16.4" fill="#BFDBFE" opacity="0.55"/><rect x="719.6" y="363.5" width="14.1" height="16.4" fill="#BFDBFE" opacity="0.55"/><rect x="719.6" y="396.3" width="14.1" height="16.4" fill="#BFDBFE" opacity="0.55"/><rect x="719.6" y="429.2" width="14.1" height="16.4" fill="#BFDBFE" opacity="0.55"/><rect x="747.8" y="363.5" width="14.1" height="16.4" fill="#BFDBFE" opacity="0.55"/><rect x="747.8" y="396.3" width="14.1" height="16.4" fill="#BFDBFE" opacity="0.55"/><rect x="747.8" y="429.2" width="14.1" height="16.4" fill="#BFDBFE" opacity="0.55"/></g>
<g opacity="0.7"><rect x="790" y="366.29999999999995" width="86" height="103.70000000000002" fill="#60A5FA"/><rect x="810.8" y="391.8" width="14.8" height="17.5" fill="#BFDBFE" opacity="0.55"/><rect x="810.8" y="426.9" width="14.8" height="17.5" fill="#BFDBFE" opacity="0.55"/><rect x="840.4" y="391.8" width="14.8" height="17.5" fill="#BFDBFE" opacity="0.55"/><rect x="840.4" y="426.9" width="14.8" height="17.5" fill="#BFDBFE" opacity="0.55"/></g>
<g opacity="0.9"><rect x="16" y="409.5" width="60" height="60.50000000000001" fill="#2563EB"/><rect x="31.6" y="426.4" width="9.6" height="8.9" fill="#BFDBFE" opacity="0.55"/><rect x="31.6" y="444.2" width="9.6" height="8.9" fill="#BFDBFE" opacity="0.55"/><rect x="50.8" y="426.4" width="9.6" height="8.9" fill="#BFDBFE" opacity="0.55"/><rect x="50.8" y="444.2" width="9.6" height="8.9" fill="#BFDBFE" opacity="0.55"/></g>
<g opacity="0.9"><rect x="84" y="377.6" width="97" height="92.4" fill="#2563EB"/><rect x="107.0" y="400.9" width="17.0" height="15.3" fill="#BFDBFE" opacity="0.55"/><rect x="107.0" y="431.4" width="17.0" height="15.3" fill="#BFDBFE" opacity="0.55"/><rect x="141.0" y="400.9" width="17.0" height="15.3" fill="#BFDBFE" opacity="0.55"/><rect x="141.0" y="431.4" width="17.0" height="15.3" fill="#BFDBFE" opacity="0.55"/></g>
<g opacity="0.9"><rect x="189" y="395.2" width="134" height="74.80000000000001" fill="#2563EB"/><rect x="212.4" y="415.0" width="17.4" height="11.8" fill="#BFDBFE" opacity="0.55"/><rect x="212.4" y="438.5" width="17.4" height="11.8" fill="#BFDBFE" opacity="0.55"/><rect x="247.3" y="415.0" width="17.4" height="11.8" fill="#BFDBFE" opacity="0.55"/><rect x="247.3" y="438.5" width="17.4" height="11.8" fill="#BFDBFE" opacity="0.55"/><rect x="282.1" y="415.0" width="17.4" height="11.8" fill="#BFDBFE" opacity="0.55"/><rect x="282.1" y="438.5" width="17.4" height="11.8" fill="#BFDBFE" opacity="0.55"/></g>
<g opacity="0.9"><rect x="331" y="363.3" width="81" height="106.7" fill="#2563EB"/><rect x="350.8" y="389.4" width="13.8" height="18.1" fill="#BFDBFE" opacity="0.55"/><rect x="350.8" y="425.7" width="13.8" height="18.1" fill="#BFDBFE" opacity="0.55"/><rect x="378.4" y="389.4" width="13.8" height="18.1" fill="#BFDBFE" opacity="0.55"/><rect x="378.4" y="425.7" width="13.8" height="18.1" fill="#BFDBFE" opacity="0.55"/></g>
<g opacity="0.9"><rect x="420" y="380.9" width="118" height="89.10000000000001" fill="#2563EB"/><rect x="441.1" y="403.5" width="15.1" height="14.6" fill="#BFDBFE" opacity="0.55"/><rect x="441.1" y="432.8" width="15.1" height="14.6" fill="#BFDBFE" opacity="0.55"/><rect x="471.4" y="403.5" width="15.1" height="14.6" fill="#BFDBFE" opacity="0.55"/><rect x="471.4" y="432.8" width="15.1" height="14.6" fill="#BFDBFE" opacity="0.55"/><rect x="501.7" y="403.5" width="15.1" height="14.6" fill="#BFDBFE" opacity="0.55"/><rect x="501.7" y="432.8" width="15.1" height="14.6" fill="#BFDBFE" opacity="0.55"/></g>
<g opacity="0.9"><rect x="546" y="398.5" width="65" height="71.5" fill="#2563EB"/><rect x="562.6" y="417.6" width="10.6" height="11.1" fill="#BFDBFE" opacity="0.55"/><rect x="562.6" y="439.8" width="10.6" height="11.1" fill="#BFDBFE" opacity="0.55"/><rect x="583.8" y="417.6" width="10.6" height="11.1" fill="#BFDBFE" opacity="0.55"/><rect x="583.8" y="439.8" width="10.6" height="11.1" fill="#BFDBFE" opacity="0.55"/></g>
<g opacity="0.9"><rect x="619" y="366.6" width="102" height="103.4" fill="#2563EB"/><rect x="637.9" y="392.1" width="12.9" height="17.5" fill="#BFDBFE" opacity="0.55"/><rect x="637.9" y="427.0" width="12.9" height="17.5" fill="#BFDBFE" opacity="0.55"/><rect x="663.6" y="392.1" width="12.9" height="17.5" fill="#BFDBFE" opacity="0.55"/><rect x="663.6" y="427.0" width="12.9" height="17.5" fill="#BFDBFE" opacity="0.55"/><rect x="689.3" y="392.1" width="12.9" height="17.5" fill="#BFDBFE" opacity="0.55"/><rect x="689.3" y="427.0" width="12.9" height="17.5" fill="#BFDBFE" opacity="0.55"/></g>
<g opacity="0.9"><rect x="729" y="384.2" width="139" height="85.8" fill="#2563EB"/><rect x="749.1" y="406.2" width="14.1" height="14.0" fill="#BFDBFE" opacity="0.55"/><rect x="749.1" y="434.1" width="14.1" height="14.0" fill="#BFDBFE" opacity="0.55"/><rect x="777.3" y="406.2" width="14.1" height="14.0" fill="#BFDBFE" opacity="0.55"/><rect x="777.3" y="434.1" width="14.1" height="14.0" fill="#BFDBFE" opacity="0.55"/><rect x="805.6" y="406.2" width="14.1" height="14.0" fill="#BFDBFE" opacity="0.55"/><rect x="805.6" y="434.1" width="14.1" height="14.0" fill="#BFDBFE" opacity="0.55"/><rect x="833.8" y="406.2" width="14.1" height="14.0" fill="#BFDBFE" opacity="0.55"/><rect x="833.8" y="434.1" width="14.1" height="14.0" fill="#BFDBFE" opacity="0.55"/></g>
<rect y="470" width="800" height="130" fill="url(#gr4)"/>
<rect y="468" width="800" height="3" fill="#2563EB" opacity="0.5"/>
</svg>